<svg width="30" height="30" viewBox="0 0 30 30" fill="none" xmlns="http://www.w3.org/2000/svg">
<g clip-path="url(#clip0_923_15194)">
<mask id="mask0_923_15194" style="mask-type:luminance" maskUnits="userSpaceOnUse" x="0" y="0" width="30" height="30">
<path d="M30 0H0V30H30V0Z" fill="white"/>
</mask>
<g mask="url(#mask0_923_15194)">
<path d="M12.7188 3.78298C13.7675 2.88484 15.2323 2.88484 16.2812 3.78298L24.7822 11.0652C25.4611 11.6468 25.8505 12.5146 25.8506 13.4451V23.8435C25.8505 25.5246 24.5722 26.8922 23.001 26.8924H5.99902C4.42773 26.8923 3.14955 25.5246 3.14941 23.8435V13.4451C3.14946 12.5143 3.53878 11.6468 4.21777 11.0652L12.7188 3.78298ZM15.3779 4.93825C14.8615 4.49587 14.139 4.49587 13.6221 4.93825L5.12109 12.2205C4.77445 12.5175 4.57524 12.9638 4.5752 13.4451V23.8435C4.57533 24.7013 5.21414 25.3991 5.99902 25.3992H10.7168V18.0613C10.7168 16.8254 11.7221 15.8201 12.958 15.8201H16.5684C17.8043 15.8201 18.8096 16.8254 18.8096 18.0613V25.3992H23.001C23.7858 25.399 24.4247 24.7013 24.4248 23.8435V13.4451C24.4248 12.9639 24.2257 12.5175 23.8789 12.2205L15.3779 4.93825ZM12.958 17.3142C12.5461 17.3142 12.2109 17.6492 12.2109 18.0613V25.3826H17.3154V18.0613C17.3154 17.6492 16.9804 17.3142 16.5684 17.3142H12.958Z" fill="#333333"/>
</g>
</g>
<defs>
<clipPath id="clip0_923_15194">
<rect width="30" height="30" fill="white"/>
</clipPath>
</defs>
</svg>
