<svg width="30" height="30" viewBox="0 0 30 30" fill="none" xmlns="http://www.w3.org/2000/svg">
<mask id="mask0_1149_14146" style="mask-type:luminance" maskUnits="userSpaceOnUse" x="0" y="0" width="30" height="30">
<path d="M30 0H0V30H30V0Z" fill="white"/>
</mask>
<g mask="url(#mask0_1149_14146)">
<path d="M17.9689 26.8693H12.0274C11.6124 26.8693 11.2761 26.5329 11.2761 26.1179V24.1191C11.2761 23.6166 11.014 23.1614 10.592 22.9316C10.4978 22.88 10.4039 22.8266 10.3111 22.7714C9.90582 22.5307 9.38665 22.5349 8.95758 22.7828L7.22811 23.7813C7.05584 23.8813 6.85011 23.9075 6.65788 23.8564C6.46536 23.8047 6.3013 23.6788 6.20181 23.5063L3.23268 18.3613C3.02519 18.0018 3.14845 17.5425 3.50738 17.335L5.19224 16.3615C5.62248 16.1129 5.88486 15.6454 5.87693 15.1415L5.87576 14.9957L5.87722 14.8492C5.88456 14.3488 5.62219 13.881 5.19224 13.6324L3.50737 12.6587C3.14815 12.4512 3.02519 11.9919 3.23268 11.6327L6.20181 6.48769C6.3013 6.31512 6.46535 6.18922 6.65788 6.13757C6.8504 6.0865 7.05584 6.11291 7.22811 6.2127L8.957 7.21112C9.38665 7.45911 9.90552 7.46322 10.312 7.22197C10.4044 7.1668 10.4989 7.11309 10.5943 7.06115C11.0143 6.83165 11.2761 6.37675 11.2761 5.87461V3.87631C11.2761 3.46133 11.6124 3.125 12.0274 3.125H17.9689C18.3839 3.125 18.7202 3.46133 18.7202 3.87631V5.97645C18.7202 6.46714 18.9752 6.91793 19.3858 7.15271C19.4486 7.18881 19.5093 7.22432 19.5692 7.26071C19.9871 7.51281 20.516 7.51516 20.9483 7.26512L22.7711 6.2127C22.9439 6.11292 23.1491 6.08621 23.3413 6.13757C23.5338 6.18922 23.6979 6.31512 23.7974 6.48769L26.7668 11.6327C26.9743 11.9922 26.851 12.4515 26.4918 12.659L24.6232 13.7381C24.1927 13.9867 23.9365 14.4516 23.9374 14.9816V15.0133C23.9362 15.5427 24.1924 16.0073 24.6229 16.2559L26.4918 17.335C26.6644 17.4348 26.7903 17.5988 26.8419 17.7914C26.8936 17.9839 26.8663 18.189 26.7668 18.3616L23.7944 23.5066C23.6947 23.6791 23.5306 23.8048 23.3381 23.8564C23.1459 23.9078 22.9407 23.8813 22.7679 23.7813L20.9471 22.7291C20.5151 22.4794 19.9868 22.4812 19.5683 22.7327C19.5091 22.7685 19.4489 22.8037 19.3884 22.8383C18.9761 23.0737 18.7202 23.5248 18.7202 24.0161V26.118C18.7202 26.5329 18.3839 26.8693 17.9689 26.8693ZM12.7787 25.3666H17.2176V24.016C17.2176 22.9865 17.7637 22.0354 18.6433 21.5335C18.6935 21.5047 18.7437 21.4754 18.7933 21.4455C19.6804 20.9113 20.7936 20.9046 21.699 21.4279L22.8691 22.104L25.0896 18.2606L23.8716 17.5571C22.983 17.0439 22.4324 16.068 22.4348 15.0097C22.4327 13.9262 22.9833 12.9501 23.8719 12.4368L25.0899 11.7333L22.8717 7.88964L21.6996 8.5664C20.7927 9.08997 19.679 9.08175 18.7915 8.54615C18.7398 8.51504 18.6891 8.4854 18.6377 8.45576C17.7626 7.95509 17.2176 7.0048 17.2176 5.97645V4.62762H12.7787V5.87461C12.7787 6.92644 12.2173 7.8867 11.3136 8.38063C11.2338 8.42377 11.1563 8.46809 11.0797 8.51358C10.2063 9.03216 9.10491 9.03216 8.20569 8.5124L7.12744 7.88993L4.90932 11.7336L5.94413 12.3317C6.84541 12.8524 7.39539 13.8273 7.37954 14.8759L7.37837 14.9957L7.37925 15.1148C7.39568 16.1666 6.8457 17.1416 5.94413 17.6625L4.90932 18.2606L7.12744 22.1043L8.20598 21.4816C9.10432 20.9624 10.2055 20.9612 11.078 21.4792C11.1546 21.5247 11.2321 21.5693 11.3107 21.6119C12.2164 22.1058 12.7787 23.0663 12.7787 24.1191L12.7787 25.3666Z" fill="#999999"/>
<path d="M15.0001 19.2753C12.6432 19.2753 10.7256 17.3577 10.7256 15.0008C10.7256 12.6439 12.6432 10.7266 15.0001 10.7266C17.357 10.7266 19.2746 12.6439 19.2746 15.0008C19.2746 17.3577 17.357 19.2753 15.0001 19.2753ZM15.0001 12.2292C13.4717 12.2292 12.2282 13.4727 12.2282 15.0008C12.2282 16.5292 13.4717 17.7727 15.0001 17.7727C16.5286 17.7727 17.772 16.5292 17.772 15.0008C17.772 13.4727 16.5286 12.2292 15.0001 12.2292Z" fill="#999999"/>
</g>
</svg>
