<svg width="30" height="30" viewBox="0 0 30 30" fill="none" xmlns="http://www.w3.org/2000/svg">
<mask id="mask0_923_15015" style="mask-type:luminance" maskUnits="userSpaceOnUse" x="0" y="0" width="30" height="30">
<path d="M30 0H0V30H30V0Z" fill="white"/>
</mask>
<g mask="url(#mask0_923_15015)">
<path d="M20.6046 26.8947H12.1478C11.7778 26.8947 11.4628 26.6246 11.4066 26.259L10.9422 23.2467H8.56477C7.87571 23.2467 7.30881 22.712 7.25754 22.0355L6.40823 18.2665H4.08879C3.83303 18.2665 3.59456 18.1361 3.45686 17.9205C3.31916 17.7049 3.30071 17.4339 3.40823 17.2016L5.76077 12.1168C6.49055 6.96934 10.9407 3.10186 16.1603 3.10156C21.9713 3.10127 26.5829 7.65225 26.6597 13.4609C26.7066 17.0255 24.9666 20.3404 22.0053 22.3282C21.3244 22.7853 20.9705 23.6293 21.1032 24.4786L21.3455 26.029C21.3795 26.2455 21.3168 26.4658 21.1744 26.6325C21.0321 26.7989 20.8237 26.8947 20.6046 26.8947ZM12.7911 25.3947H19.7283L19.6214 24.7104C19.3987 23.2874 20.0064 21.8636 21.1692 21.0828C23.708 19.3786 25.1998 16.5365 25.1597 13.4809C25.0946 8.50156 21.1416 4.60127 16.1603 4.60156C11.6524 4.60186 7.81418 7.96572 7.23263 12.4265C7.22267 12.5021 7.20129 12.5753 7.16935 12.6444L5.26213 16.7665H7.00793C7.35861 16.7665 7.66242 17.0094 7.73947 17.3516L8.73 21.7467H11.5856C11.9556 21.7467 12.2705 22.0168 12.3268 22.3824L12.7911 25.3947Z" fill="#333333"/>
<path d="M15.7803 21.3508C15.366 21.3508 15.0303 21.015 15.0303 20.6008V9.39062C15.0303 8.97637 15.366 8.64062 15.7803 8.64062C16.1945 8.64062 16.5303 8.97637 16.5303 9.39062V20.6008C16.5303 21.015 16.1945 21.3508 15.7803 21.3508Z" fill="#333333"/>
<path d="M18.359 14.3898H15.7803C15.366 14.3898 15.0303 14.0541 15.0303 13.6398V13.4482C15.0303 10.7972 17.1868 8.64062 19.8379 8.64062H22.4169C22.8312 8.64062 23.1669 8.97637 23.1669 9.39062V9.58193C23.1669 12.233 21.0101 14.3898 18.359 14.3898ZM16.5774 12.8898H18.359C19.9926 12.8898 21.3534 11.6995 21.6197 10.1406H19.8379C18.2043 10.1406 16.8435 11.331 16.5774 12.8898Z" fill="#333333"/>
<path d="M15.7805 17.6317H13.2015C10.5504 17.6317 8.39355 15.4752 8.39355 12.8241V12.6328C8.39355 12.2186 8.7293 11.8828 9.14355 11.8828H11.7226C14.3736 11.8828 16.5305 14.0394 16.5305 16.6904V16.8817C16.5305 17.296 16.1947 17.6317 15.7805 17.6317ZM9.94072 13.3828C10.207 14.9417 11.5679 16.1317 13.2015 16.1317H14.9833C14.717 14.5729 13.3562 13.3828 11.7226 13.3828H9.94072Z" fill="#333333"/>
</g>
</svg>
