<svg width="30" height="30" viewBox="0 0 30 30" fill="none" xmlns="http://www.w3.org/2000/svg">
<g clip-path="url(#clip0_923_15093)">
<mask id="mask0_923_15093" style="mask-type:luminance" maskUnits="userSpaceOnUse" x="0" y="0" width="30" height="30">
<path d="M30 0H0V30H30V0Z" fill="white"/>
</mask>
<g mask="url(#mask0_923_15093)">
<path d="M3.91603 26.8939C3.70274 26.8939 3.49474 26.8028 3.34943 26.6353C3.14786 26.4029 3.10861 26.071 3.2507 25.7979L5.32403 21.8115C3.91046 19.8123 3.16603 17.4671 3.16603 14.9988C3.16603 8.47324 8.47521 3.16406 15.0011 3.16406C21.527 3.16406 26.8361 8.47324 26.8361 14.9988C26.8361 21.5244 21.527 26.8339 15.0011 26.8339C12.8621 26.8339 10.7782 26.2597 8.9507 25.1701L4.16447 26.8515C4.08331 26.8802 3.99923 26.8939 3.91603 26.8939ZM9.04005 23.5939C9.18155 23.5939 9.32189 23.6341 9.44405 23.712C11.1037 24.7731 13.0253 25.3339 15.0011 25.3339C20.6999 25.3339 25.3361 20.6977 25.3361 14.9988C25.3361 9.30029 20.6999 4.66406 15.0011 4.66406C9.30226 4.66406 4.66603 9.30029 4.66603 14.9988C4.66603 17.2954 5.40372 19.4695 6.79972 21.2859C6.97726 21.5171 7.00479 21.8303 6.87032 22.089L5.45616 24.808L8.79161 23.6364C8.87217 23.608 8.95626 23.5939 9.04005 23.5939Z" fill="#333333"/>
<path d="M14.9588 14.6985C13.2001 14.6985 11.7695 13.2943 11.7695 11.5682C11.7695 9.84199 13.2001 8.4375 14.9588 8.4375C16.7175 8.4375 18.148 9.84199 18.148 11.5682C18.148 13.2943 16.7175 14.6985 14.9588 14.6985ZM14.9588 9.9375C14.0274 9.9375 13.2695 10.669 13.2695 11.5682C13.2695 12.4673 14.0274 13.1985 14.9588 13.1985C15.8901 13.1985 16.648 12.4673 16.648 11.5682C16.648 10.669 15.8901 9.9375 14.9588 9.9375Z" fill="#333333"/>
<path d="M19.6465 21.5658H10.3535C9.93926 21.5658 9.60352 21.2301 9.60352 20.8158C9.60352 17.902 11.9739 15.5312 14.8878 15.5312H15.1119C18.0258 15.5312 20.3965 17.902 20.3965 20.8158C20.3965 21.2301 20.0607 21.5658 19.6465 21.5658ZM11.1782 20.0658H18.8218C18.4729 18.337 16.9421 17.0312 15.1119 17.0312H14.8878C13.0579 17.0312 11.5269 18.337 11.1782 20.0658Z" fill="#333333"/>
</g>
</g>
<defs>
<clipPath id="clip0_923_15093">
<rect width="30" height="30" fill="white"/>
</clipPath>
</defs>
</svg>
