<svg width="30" height="30" viewBox="0 0 30 30" fill="none" xmlns="http://www.w3.org/2000/svg">
<mask id="mask0_1149_13909" style="mask-type:luminance" maskUnits="userSpaceOnUse" x="0" y="0" width="30" height="30">
<path d="M30 0H0V30H30V0Z" fill="white"/>
</mask>
<g mask="url(#mask0_1149_13909)">
<path d="M14.9997 26.8864C8.44659 26.8864 3.11523 21.555 3.11523 15.0019C3.11523 8.44883 8.44659 3.11719 14.9997 3.11719C21.5528 3.11719 26.8844 8.44854 26.8844 15.0019C26.8844 21.5553 21.5531 26.8864 14.9997 26.8864ZM14.9997 4.6198C9.27508 4.6198 4.61785 9.27733 4.61785 15.0019C4.61785 20.7266 9.27508 25.3838 14.9997 25.3838C20.7243 25.3838 25.3818 20.7266 25.3818 15.0019C25.3818 9.27733 20.7243 4.6198 14.9997 4.6198Z" fill="#999999"/>
<path d="M15.0004 19.2178C14.5854 19.2178 14.2491 18.8815 14.2491 18.4665V17.6095C14.2491 16.477 14.9367 15.4595 15.9603 15.0777C17.0744 14.6624 17.7922 13.5836 17.747 12.3932C17.6939 10.9916 16.51 9.80766 15.1084 9.75454C14.3518 9.72519 13.6375 9.99813 13.0942 10.5205C12.551 11.0438 12.2516 11.747 12.2516 12.5009C12.2516 12.9159 11.9153 13.2522 11.5003 13.2522C11.0854 13.2522 10.749 12.9159 10.749 12.5009C10.749 11.3349 11.2118 10.247 12.0524 9.43817C12.892 8.62963 13.9967 8.20937 15.1653 8.2531C17.3714 8.33674 19.1648 10.1302 19.2485 12.3363C19.3183 14.1761 18.2081 15.8434 16.4854 16.4855C16.0466 16.6493 15.7517 17.1009 15.7517 17.6095V18.4665C15.7517 18.8815 15.4153 19.2178 15.0004 19.2178Z" fill="#999999"/>
<path d="M15.0005 21.7548C15.4721 21.7548 15.8544 21.3725 15.8544 20.9008C15.8544 20.4292 15.4721 20.0469 15.0005 20.0469C14.5288 20.0469 14.1465 20.4292 14.1465 20.9008C14.1465 21.3725 14.5288 21.7548 15.0005 21.7548Z" fill="#999999"/>
</g>
</svg>
