<svg width="30" height="30" viewBox="0 0 30 30" fill="none" xmlns="http://www.w3.org/2000/svg">
<g clip-path="url(#clip0_923_15055)">
<mask id="mask0_923_15055" style="mask-type:luminance" maskUnits="userSpaceOnUse" x="0" y="0" width="30" height="30">
<path d="M30 0H0V30H30V0Z" fill="white"/>
</mask>
<g mask="url(#mask0_923_15055)">
<path d="M5.1748 24.1238C4.76055 24.1238 4.4248 23.7881 4.4248 23.3738V6.25156C4.4248 4.51455 5.83779 3.10156 7.5748 3.10156H22.4254C24.1624 3.10156 25.5754 4.51455 25.5754 6.25156V20.6035C25.5754 21.0178 25.2396 21.3535 24.8254 21.3535C24.4111 21.3535 24.0754 21.0178 24.0754 20.6035V6.25156C24.0754 5.34189 23.3351 4.60156 22.4254 4.60156H7.5748C6.66514 4.60156 5.9248 5.34189 5.9248 6.25156V23.3738C5.9248 23.7881 5.58906 24.1238 5.1748 24.1238Z" fill="#333333"/>
<path d="M24.8258 26.8925H7.94463C6.0043 26.8925 4.42578 25.3137 4.42578 23.3733C4.42578 22.4344 4.79082 21.5499 5.45381 20.8828C6.11943 20.2172 7.00332 19.8516 7.94463 19.8516H24.8258C25.24 19.8516 25.5758 20.1873 25.5758 20.6016C25.5758 21.0316 25.2096 21.3753 24.7783 21.3516H7.94463C7.4041 21.3516 6.89668 21.561 6.51611 21.9416C6.13613 22.3242 5.92578 22.8334 5.92578 23.3733C5.92578 24.4866 6.83135 25.3925 7.94463 25.3925H24.7786C25.2022 25.3702 25.5758 25.7095 25.5758 26.1396V26.1425C25.5758 26.5567 25.24 26.8925 24.8258 26.8925Z" fill="#333333"/>
<path d="M24.8259 24.125H8.41699C8.00273 24.125 7.66699 23.7893 7.66699 23.375C7.66699 22.9607 8.00273 22.625 8.41699 22.625H24.8259C25.2401 22.625 25.5759 22.9607 25.5759 23.375C25.5759 23.7893 25.2401 24.125 24.8259 24.125Z" fill="#333333"/>
<path d="M15 12.7104C14.8916 12.7104 14.7832 12.6869 14.6818 12.6395L12.2344 11.4937L9.78691 12.6395C9.55429 12.7481 9.28271 12.7306 9.06621 12.5932C8.84971 12.4555 8.71875 12.217 8.71875 11.9604V3.85156C8.71875 3.4373 9.05449 3.10156 9.46875 3.10156C9.88301 3.10156 10.2187 3.4373 10.2187 3.85156V10.7812L11.9162 9.98633C12.1178 9.89199 12.351 9.89199 12.5525 9.98633L14.25 10.7812V3.85156C14.25 3.4373 14.5857 3.10156 15 3.10156C15.4143 3.10156 15.75 3.4373 15.75 3.85156V11.9604C15.75 12.217 15.619 12.4555 15.4025 12.5932C15.2804 12.6708 15.1403 12.7104 15 12.7104Z" fill="#333333"/>
</g>
</g>
<defs>
<clipPath id="clip0_923_15055">
<rect width="30" height="30" fill="white"/>
</clipPath>
</defs>
</svg>
