<svg width="26" height="24" viewBox="0 0 26 24" fill="none" xmlns="http://www.w3.org/2000/svg">
<path d="M4.13184 8.91954V7.76562C4.13184 6.66105 5.02727 5.76562 6.13184 5.76562H19.2013C20.3059 5.76562 21.2013 6.66105 21.2013 7.76562V8.91954M4.88965 5.93617V4.55684C4.88965 3.55032 5.7056 2.73438 6.71212 2.73438H18.6215C19.628 2.73438 20.4439 3.55032 20.4439 4.55684V5.93617M7.55469 18.2188H17.7779M5.3457 8.92188H19.9878C21.0924 8.92188 21.9878 9.81731 21.9878 10.9219V19.2626C21.9878 20.3672 21.0924 21.2626 19.9878 21.2626H5.3457C4.24113 21.2626 3.3457 20.3672 3.3457 19.2626V10.9219C3.3457 9.81731 4.24113 8.92188 5.3457 8.92188Z" stroke="#333333" stroke-width="1.5" stroke-linecap="round" stroke-linejoin="round"/>
</svg>
