<svg width="30" height="30" viewBox="0 0 30 30" fill="none" xmlns="http://www.w3.org/2000/svg">
<g clip-path="url(#clip0_923_15141)">
<mask id="mask0_923_15141" style="mask-type:luminance" maskUnits="userSpaceOnUse" x="0" y="0" width="30" height="30">
<path d="M30 0H0V30H30V0Z" fill="white"/>
</mask>
<g mask="url(#mask0_923_15141)">
<path d="M23.7954 26.9662H6.19004C4.45303 26.9662 3.04004 25.5532 3.04004 23.8162V7.89219C3.04004 6.15518 4.45303 4.74219 6.19004 4.74219H23.7954C25.5324 4.74219 26.9454 6.15518 26.9454 7.89219V23.8162C26.9454 25.5532 25.5324 26.9662 23.7954 26.9662ZM6.19004 6.24219C5.28037 6.24219 4.54004 6.98252 4.54004 7.89219V23.8162C4.54004 24.7259 5.28037 25.4662 6.19004 25.4662H23.7954C24.7051 25.4662 25.4454 24.7259 25.4454 23.8162V7.89219C25.4454 6.98252 24.7051 6.24219 23.7954 6.24219H6.19004Z" fill="#333333"/>
<path d="M26.1954 10.7969H3.79004C3.37578 10.7969 3.04004 10.4611 3.04004 10.0469C3.04004 9.63262 3.37578 9.29688 3.79004 9.29688H26.1954C26.6097 9.29688 26.9454 9.63262 26.9454 10.0469C26.9454 10.4611 26.6097 10.7969 26.1954 10.7969Z" fill="#333333"/>
<path d="M8.82129 8.03096C8.40703 8.03096 8.07129 7.69522 8.07129 7.28096V3.78906C8.07129 3.3748 8.40703 3.03906 8.82129 3.03906C9.23555 3.03906 9.57129 3.3748 9.57129 3.78906V7.28096C9.57129 7.69522 9.23555 8.03096 8.82129 8.03096Z" fill="#333333"/>
<path d="M21.1787 8.03096C20.7645 8.03096 20.4287 7.69522 20.4287 7.28096V3.78906C20.4287 3.3748 20.7645 3.03906 21.1787 3.03906C21.593 3.03906 21.9287 3.3748 21.9287 3.78906V7.28096C21.9287 7.69522 21.593 8.03096 21.1787 8.03096Z" fill="#333333"/>
<path d="M10.6215 17.6H7.02148C6.60723 17.6 6.27148 17.2643 6.27148 16.85V13.25C6.27148 12.8357 6.60723 12.5 7.02148 12.5H10.6215C11.0357 12.5 11.3715 12.8357 11.3715 13.25V16.85C11.3715 17.2643 11.0357 17.6 10.6215 17.6ZM7.77148 16.1H9.87148V14H7.77148V16.1Z" fill="#333333"/>
<path d="M16.8002 17.6H13.2002C12.7859 17.6 12.4502 17.2643 12.4502 16.85V13.25C12.4502 12.8357 12.7859 12.5 13.2002 12.5H16.8002C17.2145 12.5 17.5502 12.8357 17.5502 13.25V16.85C17.5502 17.2643 17.2145 17.6 16.8002 17.6ZM13.9502 16.1H16.0502V14H13.9502V16.1Z" fill="#333333"/>
<path d="M22.9779 17.6H19.3779C18.9637 17.6 18.6279 17.2643 18.6279 16.85V13.25C18.6279 12.8357 18.9637 12.5 19.3779 12.5H22.9779C23.3922 12.5 23.7279 12.8357 23.7279 13.25V16.85C23.7279 17.2643 23.3922 17.6 22.9779 17.6ZM20.1279 16.1H22.2279V14H20.1279V16.1Z" fill="#333333"/>
<path d="M10.6215 23.8812H7.02148C6.60723 23.8812 6.27148 23.5455 6.27148 23.1312V19.5312C6.27148 19.117 6.60723 18.7812 7.02148 18.7812H10.6215C11.0357 18.7812 11.3715 19.117 11.3715 19.5312V23.1312C11.3715 23.5455 11.0357 23.8812 10.6215 23.8812ZM7.77148 22.3812H9.87148V20.2812H7.77148V22.3812Z" fill="#333333"/>
<path d="M16.8002 23.8812H13.2002C12.7859 23.8812 12.4502 23.5455 12.4502 23.1312V19.5312C12.4502 19.117 12.7859 18.7812 13.2002 18.7812H16.8002C17.2145 18.7812 17.5502 19.117 17.5502 19.5312V23.1312C17.5502 23.5455 17.2145 23.8812 16.8002 23.8812ZM13.9502 22.3812H16.0502V20.2812H13.9502V22.3812Z" fill="#333333"/>
</g>
</g>
<defs>
<clipPath id="clip0_923_15141">
<rect width="30" height="30" fill="white"/>
</clipPath>
</defs>
</svg>
