<svg width="40" height="40" viewBox="0 0 40 40" fill="none" xmlns="http://www.w3.org/2000/svg">
<mask id="mask0_1230_17899" style="mask-type:luminance" maskUnits="userSpaceOnUse" x="0" y="0" width="40" height="40">
<path d="M40 0H0V40H40V0Z" fill="white"/>
</mask>
<g mask="url(#mask0_1230_17899)">
<path d="M19.9971 37.2758C16.716 37.2762 13.4367 36.9816 10.18 36.3924C8.56895 36.0837 7.08157 34.5947 6.78166 33.001C6.47512 31.3099 6.24665 29.6016 6.10024 27.906C4.0179 27.3266 2.5 25.4086 2.5 23.1708C2.5 20.9351 4.0179 19.0189 6.10024 18.4399C6.24665 16.7444 6.4749 15.0369 6.78034 13.352C7.08135 11.745 8.57072 10.2556 10.1725 9.95485C11.9217 9.63946 13.6676 9.40767 15.3793 9.26214C16.0678 7.35607 17.9168 6.00781 20.0022 6.00781C22.1241 6.00781 23.9444 7.33219 24.6251 9.26258C26.3375 9.40811 28.0807 9.6399 29.8196 9.95352C31.4288 10.2543 32.9186 11.7441 33.2181 13.3459C33.5251 15.0361 33.7533 16.7439 33.8998 18.4399C35.9823 19.0185 37.5 20.9347 37.5 23.1708C37.5 25.409 35.9823 27.327 33.8998 27.906C33.7533 29.6015 33.5251 31.309 33.2194 32.9939C32.9182 34.5961 31.4306 36.085 29.8311 36.3906C26.5666 36.9807 23.2809 37.2758 19.9971 37.2758ZM20.0022 8.27262C18.7099 8.27262 17.5864 9.23162 17.3888 10.5029L17.2502 11.3965L16.3482 11.4588C14.4603 11.5898 12.5202 11.833 10.5823 12.1821C9.91766 12.3072 9.13361 13.0906 9.00754 13.7626C8.66494 15.6527 8.4232 17.5791 8.2905 19.4807L8.2215 20.4663L7.23618 20.5317C5.85031 20.6242 4.7648 21.7836 4.7648 23.1708C4.7648 24.5606 5.85031 25.7218 7.23618 25.8142L8.2215 25.8797L8.2905 26.8652C8.4232 28.7668 8.66495 30.6933 9.00887 32.5896C9.13339 33.2522 9.91965 34.0365 10.5947 34.1661C16.8315 35.2936 23.169 35.2941 29.4171 34.1639C30.0806 34.0369 30.8662 33.2527 30.9923 32.5825C31.3351 30.6928 31.5766 28.7669 31.7093 26.8652L31.7783 25.8797L32.7638 25.8142C34.1497 25.7218 35.2352 24.5606 35.2352 23.1708C35.2352 21.7831 34.1497 20.6242 32.7638 20.5317L31.7783 20.4663L31.7093 19.4807C31.5766 17.5791 31.3351 15.6531 30.9909 13.7564C30.8662 13.0902 30.0828 12.3068 29.4104 12.1807C27.4827 11.8335 25.5426 11.5902 23.652 11.4588L22.7501 11.396L22.6112 10.5029C22.4139 9.23162 21.2921 8.27262 20.0022 8.27262ZM18.8698 34.2055V30.427H15.9709C12.0347 30.427 8.83237 27.2226 8.83237 23.284C8.83237 21.3748 9.5744 19.5816 10.9216 18.2346C12.2716 16.8842 14.0648 16.1406 15.9709 16.1406H23.9338C27.8702 16.1406 31.0727 19.3449 31.0727 23.284C31.0727 25.0229 30.4415 26.6976 29.2954 27.9998C28.1568 29.2932 26.5962 30.1324 24.9016 30.3624C24.4752 30.419 24.0421 30.5995 23.6113 30.8994L18.8698 34.2055ZM15.9709 18.4054C14.6698 18.4054 13.4454 18.9136 12.5231 19.8359C11.6034 20.7551 11.0972 21.98 11.0972 23.284C11.0972 25.9739 13.2835 28.1622 15.9709 28.1622H21.1346V29.8652L22.317 29.0407C23.0482 28.5324 23.8157 28.2219 24.5999 28.1175C25.7518 27.9613 26.8165 27.3881 27.595 26.5038C28.3771 25.6151 28.8079 24.4717 28.8079 23.284C28.8079 20.5941 26.6214 18.4054 23.9338 18.4054L15.9709 18.4054Z" fill="#333333"/>
<path d="M18.8695 34.2055V30.427H15.9706C12.0344 30.427 8.83203 27.2227 8.83203 23.284C8.83203 21.3749 9.57406 19.5816 10.9212 18.2347C12.2713 16.8842 14.0645 16.1406 15.9706 16.1406H23.9334C27.8698 16.1406 31.0724 19.345 31.0724 23.284C31.0724 25.0229 30.4412 26.6976 29.2951 27.9999C28.1565 29.2933 26.5959 30.1324 24.9013 30.3624C24.4748 30.419 24.0418 30.5995 23.611 30.8994L18.8695 34.2055ZM15.9706 18.4054C14.6694 18.4054 13.445 18.9137 12.5227 19.836C11.6031 20.7552 11.0968 21.98 11.0968 23.284C11.0968 25.9739 13.2831 28.1622 15.9706 28.1622H21.1343V29.8652L22.3167 29.0407C23.0479 28.5324 23.8153 28.2219 24.5996 28.1175C25.7519 27.9614 26.8166 27.3881 27.5947 26.5039C28.3768 25.6152 28.8076 24.4717 28.8076 23.284C28.8076 20.5941 26.6211 18.4054 23.9334 18.4054L15.9706 18.4054Z" fill="#333333"/>
<path d="M17.3527 10.9301H15.0879C15.0879 10.6355 15.1107 10.3723 15.1578 10.125L17.3828 10.5479C17.3624 10.6545 17.3527 10.7792 17.3527 10.9301Z" fill="#333333"/>
<path d="M24.9126 10.9301H22.6478C22.6478 10.7779 22.6381 10.6527 22.6182 10.5479L24.8432 10.125C24.89 10.3705 24.9126 10.6341 24.9126 10.9301Z" fill="#333333"/>
<path d="M32.781 20.5379L32.77 20.5371C32.708 20.534 32.6483 20.5304 32.5859 20.5304V18.2656C32.6877 18.2656 32.7854 18.27 32.8867 18.2754L32.781 20.5379Z" fill="#333333"/>
<path d="M32.5859 28.0839V25.8191C32.6483 25.8191 32.708 25.8156 32.77 25.8125L32.8867 28.0742C32.7854 28.0795 32.6877 28.0839 32.5859 28.0839Z" fill="#333333"/>
<path d="M7.41553 28.0844C7.30871 28.0844 7.20188 28.0795 7.10059 28.0738L7.22312 25.8125C7.28504 25.8156 7.35029 25.8196 7.41553 25.8196V28.0844Z" fill="#333333"/>
<path d="M7.22312 20.5375L7.10059 18.2762C7.20188 18.2705 7.30871 18.2656 7.41553 18.2656V20.5304C7.35029 20.5304 7.28504 20.5344 7.22312 20.5375Z" fill="#333333"/>
<path d="M20.0006 8.27459C19.3751 8.27459 18.8682 7.76766 18.8682 7.14219V3.85115C18.8682 3.22568 19.3751 2.71875 20.0006 2.71875C20.626 2.71875 21.133 3.22568 21.133 3.85115V7.14219C21.133 7.76766 20.626 8.27459 20.0006 8.27459Z" fill="#333333"/>
<path d="M20.0019 33.1678C19.8225 33.1678 19.6427 33.1253 19.4779 33.0395C19.1039 32.844 18.8695 32.4574 18.8695 32.0354V30.427H15.9706C12.0344 30.427 8.83203 27.2227 8.83203 23.284C8.83203 21.3749 9.57406 19.5816 10.9212 18.2347C12.2713 16.8842 14.0645 16.1406 15.9706 16.1406H23.9334C27.8698 16.1406 31.0724 19.345 31.0724 23.284C31.0724 25.0229 30.4412 26.6976 29.2951 27.9999C28.1565 29.2933 26.5959 30.1324 24.9013 30.3624C24.4748 30.419 24.0418 30.5995 23.611 30.8994L20.6495 32.9643C20.4562 33.0992 20.2292 33.1678 20.0019 33.1678ZM15.9706 18.4054C14.6694 18.4054 13.445 18.9137 12.5227 19.836C11.6031 20.7552 11.0968 21.98 11.0968 23.284C11.0968 25.9739 13.2831 28.1622 15.9706 28.1622H20.0019C20.6274 28.1622 21.1343 28.6691 21.1343 29.2946V29.8652L22.3167 29.0407C23.0479 28.5324 23.8153 28.2219 24.5996 28.1175C25.7519 27.9614 26.8166 27.3881 27.5947 26.5039C28.3768 25.6152 28.8076 24.4717 28.8076 23.284C28.8076 20.5941 26.6211 18.4054 23.9334 18.4054L15.9706 18.4054Z" fill="#333333"/>
<path d="M15.9088 25.3156C17.094 25.3156 18.0549 24.3548 18.0549 23.1695C18.0549 21.9843 17.094 21.0234 15.9088 21.0234C14.7235 21.0234 13.7627 21.9843 13.7627 23.1695C13.7627 24.3548 14.7235 25.3156 15.9088 25.3156Z" fill="#333333"/>
<path d="M24.0924 25.3156C25.2776 25.3156 26.2385 24.3548 26.2385 23.1695C26.2385 21.9843 25.2776 21.0234 24.0924 21.0234C22.9071 21.0234 21.9463 21.9843 21.9463 23.1695C21.9463 24.3548 22.9071 25.3156 24.0924 25.3156Z" fill="#333333"/>
</g>
</svg>
